<svg xmlns="http://www.w3.org/2000/svg" xmlns:xlink="http://www.w3.org/1999/xlink" viewBox="0 0 100 125" version="1.1" x="0px" y="0px"><g stroke="none" stroke-width="1" fill="none" fill-rule="evenodd"><path d="M50,48 C57.7319865,48 64,41.7319865 64,34 C64,26.2680135 57.7319865,20 50,20 C42.2680135,20 36,26.2680135 36,34 C36,41.7319865 42.2680135,48 50,48 Z M50,52 C40.0588745,52 32,43.9411255 32,34 C32,24.0588745 40.0588745,16 50,16 C59.9411255,16 68,24.0588745 68,34 C68,43.9411255 59.9411255,52 50,52 Z" fill="#F59486" fill-rule="nonzero"/><path d="M19,83.1584288 C19,84.2629983 18.1045695,85.1584288 17,85.1584288 C15.8954305,85.1584288 15,84.2629983 15,83.1584288 C15,68.8014061 26.5810465,57.1584288 40.8723404,57.1584288 L59.1276596,57.1584288 C73.4189535,57.1584288 85,68.8014061 85,83.1584288 C85,84.2629983 84.1045695,85.1584288 83,85.1584288 C81.8954305,85.1584288 81,84.2629983 81,83.1584288 C81,71.0057836 71.2050248,61.1584288 59.1276596,61.1584288 L40.8723404,61.1584288 C28.7949752,61.1584288 19,71.0057836 19,83.1584288 Z" fill="#F59486" fill-rule="nonzero"/><path d="M50,95 C74.8528137,95 95,74.8528137 95,50 C95,25.1471863 74.8528137,5 50,5 C25.1471863,5 5,25.1471863 5,50 C5,74.8528137 25.1471863,95 50,95 Z M50,99 C22.9380473,99 1,77.0619527 1,50 C1,22.9380473 22.9380473,1 50,1 C77.0619527,1 99,22.9380473 99,50 C99,77.0619527 77.0619527,99 50,99 Z" fill="#2f3542" fill-rule="nonzero"/></g></svg>