<?xml version="1.0" encoding="iso-8859-1"?>
<!-- Generator: Adobe Illustrator 19.0.0, SVG Export Plug-In . SVG Version: 6.00 Build 0)  -->
<svg version="1.1" id="Capa_1" xmlns="http://www.w3.org/2000/svg" xmlns:xlink="http://www.w3.org/1999/xlink" x="0px" y="0px"
	 viewBox="0 0 480 480" style="enable-background:new 0 0 480 480;" xml:space="preserve">
<rect x="8" y="8" style="fill:#EFC062;" width="128" height="128"/>
<rect x="176" y="8" style="fill:#EA7E73;" width="128" height="128"/>
<rect x="344" y="8" style="fill:#EFC062;" width="128" height="128"/>
<rect x="8" y="176" style="fill:#EA7E73;" width="128" height="128"/>
<rect x="176" y="176" style="fill:#EFC062;" width="128" height="128"/>
<rect x="344" y="176" style="fill:#61DBDB;" width="128" height="128"/>
<rect x="8" y="344" style="fill:#EFC062;" width="128" height="128"/>
<rect x="176" y="344" style="fill:#F7EEDA;" width="128" height="128"/>
<rect x="344" y="344" style="fill:#EA7E73;" width="128" height="128"/>
<g>
	<path style="fill:#122333;" d="M8,144h128c4.424,0,8-3.584,8-8V8c0-4.416-3.576-8-8-8H8C3.576,0,0,3.584,0,8v128
		C0,140.416,3.576,144,8,144z M16,16h112v112H16V16z"/>
	<path style="fill:#122333;" d="M176,144h128c4.424,0,8-3.584,8-8V8c0-4.416-3.576-8-8-8H176c-4.424,0-8,3.584-8,8v128
		C168,140.416,171.576,144,176,144z M184,16h112v112H184V16z"/>
	<path style="fill:#122333;" d="M472,0H344c-4.424,0-8,3.584-8,8v128c0,4.416,3.576,8,8,8h128c4.424,0,8-3.584,8-8V8
		C480,3.584,476.424,0,472,0z M464,128H352V16h112V128z"/>
	<path style="fill:#122333;" d="M8,312h128c4.424,0,8-3.584,8-8V176c0-4.416-3.576-8-8-8H8c-4.424,0-8,3.584-8,8v128
		C0,308.416,3.576,312,8,312z M16,184h112v112H16V184z"/>
	<path style="fill:#122333;" d="M176,312h128c4.424,0,8-3.584,8-8V176c0-4.416-3.576-8-8-8H176c-4.424,0-8,3.584-8,8v128
		C168,308.416,171.576,312,176,312z M184,184h112v112H184V184z"/>
	<path style="fill:#122333;" d="M472,168H344c-4.424,0-8,3.584-8,8v128c0,4.416,3.576,8,8,8h128c4.424,0,8-3.584,8-8V176
		C480,171.584,476.424,168,472,168z M464,296H352V184h112V296z"/>
	<path style="fill:#122333;" d="M8,480h128c4.424,0,8-3.584,8-8V344c0-4.416-3.576-8-8-8H8c-4.424,0-8,3.584-8,8v128
		C0,476.416,3.576,480,8,480z M16,352h112v112H16V352z"/>
	<path style="fill:#122333;" d="M176,480h128c4.424,0,8-3.584,8-8V344c0-4.416-3.576-8-8-8H176c-4.424,0-8,3.584-8,8v128
		C168,476.416,171.576,480,176,480z M184,352h112v112H184V352z"/>
	<path style="fill:#122333;" d="M472,336H344c-4.424,0-8,3.584-8,8v128c0,4.416,3.576,8,8,8h128c4.424,0,8-3.584,8-8V344
		C480,339.584,476.424,336,472,336z M464,464H352V352h112V464z"/>
</g>
<g>
</g>
<g>
</g>
<g>
</g>
<g>
</g>
<g>
</g>
<g>
</g>
<g>
</g>
<g>
</g>
<g>
</g>
<g>
</g>
<g>
</g>
<g>
</g>
<g>
</g>
<g>
</g>
<g>
</g>
</svg>
