<svg xmlns:x="http://ns.adobe.com/Extensibility/1.0/" xmlns:i="http://ns.adobe.com/AdobeIllustrator/10.0/" xmlns:graph="http://ns.adobe.com/Graphs/1.0/" xmlns="http://www.w3.org/2000/svg" xmlns:xlink="http://www.w3.org/1999/xlink" version="1.1" x="0px" y="0px" viewBox="0 0 80 100" style="enable-background:new 0 0 80 80;" xml:space="preserve"><metadata><?xpacket begin="&#65279;" id="W5M0MpCehiHzreSzNTczkc9d"?><x:xmpmeta xmlns:x="adobe:ns:meta/" x:xmptk="Adobe XMP Core 5.6-c145 79.163499, 2018/08/13-16:40:22        "/><?xpacket end="w"?></metadata><path d="M32,33c7.7197266,0,14-6.2802734,14-14S39.7197266,5,32,5s-14,6.2802734-14,14S24.2802734,33,32,33z M32,9  c5.5141602,0,10,4.4858398,10,10s-4.4858398,10-10,10s-10-4.4858398-10-10S26.4858398,9,32,9z"/><path d="M59,43c-0.6592407,0-1.3053589,0.0524292-1.9439087,0.130249C54.1097412,36.9276733,48.2723999,33,41.7797852,33h-0.5595703  c-0.5649414,0-1.1030273,0.2387695-1.4824219,0.6572266L32,42.2006836l-7.737793-8.543457  C23.8828125,33.2387695,23.3447266,33,22.7797852,33h-0.5595703C12.7250977,33,5,41.4335938,5,51.7998047V59  c0,1.1044922,0.8955078,2,2,2h36.138855C44.1280518,68.8796997,50.8564453,75,59,75c8.8222656,0,16-7.1777344,16-16  S67.8222656,43,59,43z M9,51.7998047c0-8.0395508,5.7558594-14.6025391,12.8969727-14.7954102l8.6206055,9.5185547  c0.7587891,0.8369141,2.2060547,0.8369141,2.9648438,0l8.6206055-9.5185547  c4.5535889,0.1231689,8.6724243,2.8421021,10.9907227,7.1392212C47.7840576,46.2624512,43.8745117,51.1398315,43.138855,57H9  V51.7998047z M59,71c-6.6166992,0-12-5.3833008-12-12s5.3833008-12,12-12s12,5.3833008,12,12S65.6166992,71,59,71z"/><path d="M65.0859375,52.5859375L56.5,61.1713867l-3.5859375-3.5854492c-0.7802734-0.78125-2.0478516-0.78125-2.828125,0  c-0.78125,0.7807617-0.78125,2.0473633,0,2.828125l5,5C55.4760742,65.8046875,55.9882812,66,56.5,66  s1.0239258-0.1953125,1.4140625-0.5859375l10-10c0.78125-0.7807617,0.78125-2.0473633,0-2.828125  C67.1337891,51.8046875,65.8662109,51.8046875,65.0859375,52.5859375z"/></svg>