<svg height="512pt" viewBox="0 -36 512 512" width="512pt" xmlns="http://www.w3.org/2000/svg"><path d="m504.5 340.351562h-64.386719c-15.253906 0-27.664062 12.410157-27.664062 27.664063v4.621094c0 15.253906 12.410156 27.664062 27.664062 27.664062h10.222657c6.980468 0 12.660156 5.679688 12.660156 12.664063 0 6.980468-5.679688 12.664062-12.660156 12.664062h-149.742188c27.976562-10.929687 53.648438-27.632812 75.527344-49.507812 41.613281-41.613282 64.53125-96.945313 64.53125-155.796875 0-58.847657-22.917969-114.179688-64.53125-155.792969-41.613282-41.613281-96.941406-64.53125-155.792969-64.53125s-114.179687 22.917969-155.796875 64.53125c-41.613281 41.613281-64.53125 96.941406-64.53125 155.792969 0 58.851562 22.917969 114.179687 64.53125 155.792969 41.613281 41.617187 96.945312 64.535156 155.792969 64.535156.992187 0 230.011719-.023438 230.011719-.023438 15.253906 0 27.660156-12.410156 27.660156-27.664062s-12.40625-27.664063-27.660156-27.664063h-10.222657c-6.980469 0-12.664062-5.683593-12.664062-12.664062v-4.621094c0-6.984375 5.683593-12.664063 12.664062-12.664063h64.386719c4.140625 0 7.5-3.359374 7.5-7.5 0-4.140624-3.359375-7.5-7.5-7.5zm-226.585938-.597656c22.441407 15.175782 46.046876 28.980469 70.378907 41.160156-12.730469 10.183594-26.5 18.738282-41.054688 25.546876-17.242187-8.859376-34.171875-18.601563-50.457031-29.042969 6.597656-12.820313 13.652344-25.378907 21.132812-37.664063zm-27.863281 51.175782c12.703125 8.097656 25.785157 15.773437 39.085938 22.957031-17.363281 6.160156-35.613281 9.964843-54.355469 11.257812 4.742188-11.585937 9.839844-22.988281 15.269531-34.214843zm115.464844-25.417969c-1.617187 1.617187-3.265625 3.191406-4.925781 4.746093-25.882813-12.625-50.960938-27.132812-74.707032-43.21875 7.820313-12.152343 16.066407-24.019531 24.734376-35.570312 24.691406 17.351562 50.832031 33.007812 77.898437 46.65625-6.746094 9.621094-14.410156 18.796875-23 27.386719zm59.792969-155.289063c-7.960938-5.089844-15.816406-10.375-23.511719-15.816406 6.375-5.433594 12.855469-10.757812 19.46875-15.941406 2.167969 10.484375 3.519531 21.101562 4.042969 31.757812zm-35.132813-5.664062c11.4375 8.183594 23.25 16.035156 35.222657 23.429687-.558594 15.179688-2.789063 30.308594-6.6875 45.082031-20.816407-11.402343-41.035157-24.074218-60.3125-37.785156 10.199218-10.609375 20.792968-20.863281 31.777343-30.726562zm-42.121093 41.761718c21.097656 15.113282 43.308593 29 66.203124 41.394532-4.503906 13.019531-10.355468 25.675781-17.546874 37.746094-26.734376-13.390626-52.554688-28.796876-76.933594-45.894532 9.015625-11.414062 18.449218-22.5 28.277344-33.246094zm38.980468-145.863281c-91.582031 62.644531-164.636718 148.410157-211.53125 248.496094-1.757812 3.75-.140625 8.214844 3.609375 9.972656 1.03125.484375 2.113281.710938 3.175781.710938 2.820313 0 5.523438-1.597657 6.796876-4.320313 45.730468-97.601562 116.960937-181.25 206.261718-242.375 9.621094 15.683594 16.949219 32.382813 21.972656 49.625-88.964843 68.203125-157.585937 158.96875-198.890624 263.0625-18.679688-.167968-36.964844-2.8125-54.484376-7.785156 4.042969-11.90625 8.457032-23.761719 13.203126-35.332031 1.574218-3.832031-.261719-8.214844-4.09375-9.785157-3.832032-1.574218-8.210938.257813-9.785157 4.089844-4.886719 11.921875-9.449219 24.132813-13.609375 36.394532-16.859375-6.164063-32.863281-14.550782-47.648437-25.015626 21.152343-67.019531 53.335937-129.15625 95.714843-184.753906 42.449219-55.6875 93.972657-103.292968 153.191407-141.578125 5.039062 4.167969 9.910156 8.589844 14.59375 13.273438 7.976562 7.972656 15.140625 16.449219 21.523437 25.320312zm-185.351562-28.972656c-.378906-.585937-.769532-1.179687-1.144532-1.765625-10.152343-15.8125-19.664062-32.28125-28.355468-49.0625 14.542968-3.476562 29.5625-5.378906 44.855468-5.617188 4.136719 7.027344 8.425782 14.027344 12.808594 20.851563 1.582032 2.46875 3.195313 4.933594 4.820313 7.382813-11.339844 9.03125-22.332031 18.441406-32.984375 28.210937zm44.855468-37.449219c-1.371093-2.074218-2.730468-4.164062-4.070312-6.246094-2.59375-4.042968-5.15625-8.148437-7.675781-12.28125 10.515625.726563 20.875 2.234376 31.007812 4.515626-6.515625 4.5625-12.945312 9.222656-19.261719 14.011718zm-139.675781 15.09375c4.382813 9.269532 9.003907 18.484375 13.808594 27.476563 1.351563 2.53125 3.941406 3.96875 6.621094 3.96875 1.191406 0 2.402343-.285157 3.527343-.886719 3.652344-1.949219 5.035157-6.496094 3.082032-10.148438-4.941406-9.257812-9.6875-18.753906-14.171875-28.308593 11.992187-6.757813 24.617187-12.261719 37.707031-16.457031 9.289062 18.15625 19.515625 35.976562 30.480469 53.050781.871093 1.359375 1.761719 2.730469 2.65625 4.097656-10.59375 10.210937-20.8125 20.800781-30.652344 31.75-.4375-.675781-.878906-1.347656-1.3125-2.023437-3.429687-5.34375-6.828125-10.820313-10.097656-16.285157-2.125-3.550781-6.730469-4.707031-10.285157-2.582031-3.554687 2.125-4.710937 6.730469-2.585937 10.285156 3.351563 5.597656 6.832031 11.210938 10.347656 16.6875 1.207031 1.878906 2.433594 3.765625 3.667969 5.640625-7.042969 8.246094-13.902344 16.660157-20.519531 25.285157-2.59375 3.382812-5.152344 6.789062-7.671875 10.222656-1.613282-2.4375-3.21875-4.882813-4.785156-7.324219-15.859376-24.699219-30.039063-50.832031-42.238282-77.726563.234375-.234374.460938-.476562.695313-.714843 9.808593-9.808594 20.4375-18.496094 31.726562-26.007813zm-90.929687 189.660156c1.410156 2.265626 2.828125 4.519532 4.261718 6.753907 9.214844 14.351562 19.132813 28.457031 29.5 41.996093-3.925781 9.351563-7.628906 18.8125-11.105468 28.375-12.730469-24.226562-20.273438-50.484374-22.65625-77.125zm40.640625 32.976563c-8.300781-11.15625-16.265625-22.660156-23.757813-34.324219-6.03125-9.398437-11.863281-19.082031-17.375-28.816406 1.214844-21.472656 5.773438-42.78125 13.679688-63.082031 9.980468 19.949219 21.035156 39.429687 33.003906 58.070312 5.269531 8.203125 10.796875 16.355469 16.453125 24.3125-7.902344 14.300781-15.246094 28.921875-22.003906 43.839844zm30.214843-58.25c-4.117187-5.933594-8.152343-11.953125-12.039062-18.007813-13.90625-21.65625-26.554688-44.46875-37.65625-67.839843 7.070312-14.015625 15.851562-27.382813 26.34375-39.789063 11.882812 25.5 25.515625 50.28125 40.621094 73.804688 2.632812 4.101562 5.351562 8.191406 8.09375 12.25-8.960938 12.882812-17.421875 26.082031-25.363282 39.582031zm-38.25 119.300781c21.332032-62.59375 52.4375-120.785156 92.5-173.003906 40.160157-52.351562 88.496094-97.59375 143.679688-134.5625 19.03125 6.261719 37.054688 15.3125 53.566406 26.949219-58.792968 38.71875-110.058594 86.496093-152.484375 142.148437-42.339843 55.542969-74.742187 117.445313-96.421875 184.136719-4.914062-4.078125-9.667968-8.398437-14.242187-12.972656-10.15625-10.15625-19.019531-21.125-26.597657-32.695313zm0 0"/></svg>